<svg xmlns="http://www.w3.org/2000/svg" data-name="10 Certificate" viewBox="0 0 512 640" x="0px" y="0px"><defs><style>
      .cls-1 {
        stroke-width: 0px;
      }
    </style></defs><polygon class="cls-1" points="264 186.96 302.19 144 264 144 264 186.96"/><polygon class="cls-1" points="288 108.81 272.65 128 303.36 128 288 108.81"/><polygon class="cls-1" points="224 108.81 208.64 128 239.35 128 224 108.81"/><polygon class="cls-1" points="248 186.96 248 144 209.81 144 248 186.96"/><polygon class="cls-1" points="271.35 104 240.65 104 256 123.19 271.35 104"/><path class="cls-1" d="M429.66,74.34L357.66,2.34c-1.5-1.5-3.54-2.34-5.66-2.34v80h80c0-2.12-.84-4.16-2.34-5.66Z"/><path class="cls-1" d="M336,88V0H88c-4.42,0-8,3.58-8,8v496c0,4.42,3.58,8,8,8h336c4.42,0,8-3.58,8-8V96h-88c-4.42,0-8-3.58-8-8ZM185.75,131l32-40c1.52-1.9,3.82-3,6.25-3h64c2.43,0,4.73,1.1,6.25,3l32,40c2.43,3.04,2.32,7.4-.27,10.31l-64,72c-1.52,1.71-3.69,2.69-5.98,2.69s-4.46-.98-5.98-2.69l-64-72c-2.59-2.91-2.7-7.27-.27-10.31ZM296,256c0,4.42-3.58,8-8,8h-64c-4.42,0-8-3.58-8-8s3.58-8,8-8h64c4.42,0,8,3.58,8,8ZM304,424h-96c-4.42,0-8-3.58-8-8s3.58-8,8-8h96c4.42,0,8,3.58,8,8s-3.58,8-8,8ZM336,376h-160c-4.42,0-8-3.58-8-8s3.58-8,8-8h160c4.42,0,8,3.58,8,8s-3.58,8-8,8ZM336,344h-160c-4.42,0-8-3.58-8-8s3.58-8,8-8h160c4.42,0,8,3.58,8,8s-3.58,8-8,8ZM336,312h-160c-4.42,0-8-3.58-8-8s3.58-8,8-8h160c4.42,0,8,3.58,8,8s-3.58,8-8,8Z"/><text x="0" y="527" fill="#000000" font-size="5px" font-weight="bold" font-family="'Helvetica Neue', Helvetica, Arial-Unicode, Arial, Sans-serif">Created by Edy Subiyanto</text><text x="0" y="532" fill="#000000" font-size="5px" font-weight="bold" font-family="'Helvetica Neue', Helvetica, Arial-Unicode, Arial, Sans-serif">from the Noun Project</text></svg>