<svg xmlns="http://www.w3.org/2000/svg" xmlns:xlink="http://www.w3.org/1999/xlink" version="1.1" x="0px" y="0px" viewBox="0 0 512 640" style="enable-background:new 0 0 512 512;" xml:space="preserve"><g><g><g><g><polygon points="158.292,143.524 226.455,51.997 115.69,51.997 120.854,63.092     "/><polygon points="388.31,51.997 267.795,51.997 345.269,144.468     "/><polygon points="137.751,146.788 99.195,63.955 49.492,152.941 140.615,152.941     "/><path d="M203.301,375.672c0.14,0.188,0.272,0.38,0.399,0.577l22.499,35.12l-21.361-65.996l-55.813-172.432h-96.66      L203.301,375.672z"/><polygon points="176.216,152.941 326.276,152.941 246.833,58.119 191.015,133.069     "/><polygon points="454.508,152.941 404.805,63.954 402.375,69.174 363.385,152.941     "/><path d="M305.559,353.064l-16.585,60.041l20.489-34.39c0.119-0.2,0.246-0.397,0.379-0.589l142.58-205.186h-97.109      L305.559,353.064z"/><path d="M456,440.003H260.795l20.136-72.896l42.845-155.109H226c-5.522,0-10-4.477-10-10s4.478-10,10-10h103.3l5.264-19.056      H170.048l20.178,62.341l66.264,204.72H56c-5.522,0-10,4.478-10,10s4.478,10,10,10h400c5.522,0,10-4.478,10-10      S461.522,440.003,456,440.003z"/></g></g></g></g><text x="0" y="527" fill="#000000" font-size="5px" font-weight="bold" font-family="'Helvetica Neue', Helvetica, Arial-Unicode, Arial, Sans-serif">Created by Flatart</text><text x="0" y="532" fill="#000000" font-size="5px" font-weight="bold" font-family="'Helvetica Neue', Helvetica, Arial-Unicode, Arial, Sans-serif">from the Noun Project</text></svg>