<svg xmlns="http://www.w3.org/2000/svg" version="1.1" viewBox="-5.0 -10.0 110.0 135.0">
 <path d="m70.953 34.93c0.30859-0.51953 0.13281-1.207-0.39844-1.5078-0.53125-0.30859-1.207-0.13281-1.5156 0.39844l-2.1484 3.7109c-0.94531 0.53125-2.9062 1.6328-3.8438 2.1602l6.3672-11.031c1.168 0.75781 2.625 0.078125 3.875 0.19922 0.64844 0.625 1.0508 1.832 1.793 2.4492 0 0 0.011719 0 0.011719 0.011718 0.16406 0.14453 0.34766 0.24219 0.51953 0.35547-1.6016 2.7773-5.0469 8.7305-6.6758 11.539l-0.12109-4.5859zm-4.5195-26.324c0.74219-0.50781 2.2148-0.64062 2.9453-1.3516 1.1875-0.89844 0.84375-2.6211 1.1953-3.8633 1.0625-0.125 2.5742 0.50391 3.6875-0.078125 1.1133-0.49609 1.5898-2.0781 2.3164-2.8125 1.0156 0.35547 2.0938 1.5664 3.3438 1.5156 1.2383 0.050781 2.3477-1.1328 3.3242-1.5156 0.77734 0.71094 1.2227 2.3125 2.3594 2.8125 1.0781 0.5625 2.6055-0.011719 3.6445 0.054688 0.12109 0.15625 0.1875 0.80859 0.22266 1.1953 0.066406 0.79688 0.14453 1.707 0.67578 2.3828 0.54297 0.67578 1.4062 0.94141 2.1719 1.1953 0.36719 0.10938 0.99609 0.30859 1.0977 0.44141 0.042969 0.1875-0.1875 0.78516-0.32031 1.1406-0.28906 0.75391-0.60938 1.6055-0.42188 2.457 0.19922 0.82031 0.83984 1.4297 1.418 1.9727 0.26562 0.25391 0.75391 0.73047 0.80859 0.92969-0.56641 0.94531-1.9805 1.668-2.2266 2.9219-0.30859 1.1797 0.60156 2.5391 0.76562 3.5664-0.88281 0.58984-2.5469 0.66406-3.2773 1.6602-0.82812 0.97266-0.52734 2.4883-0.89844 3.5547-1.0664 0.10938-2.5703-0.5-3.6562 0.078125-1.3047 0.59766-1.4648 2.0312-2.3047 2.8242-0.51953 0.27344-2.1094-1.3125-2.6914-1.4297-0.87109-0.28516-1.7617 0.078126-2.5039 0.53125-0.1875 0.10938-1.2734 1.0195-1.4961 0.90625-0.1875-0.10937-0.53516-0.6875-0.71875-1.0078-0.41016-0.67578-0.86328-1.4492-1.6289-1.8281-0.60938-0.30078-1.3086-0.30078-1.9727-0.24219-0.30078 0.03125-1.6953 0.42187-1.7617 0.011718-0.22656-1.1328-0.074219-2.4453-0.83203-3.4102-0.44141-0.48828-1.0352-0.82422-1.6484-1.0508-0.49609-0.18359-1.1875-0.23047-1.6055-0.57422 0.16406-1.1016 0.99609-2.3125 0.75391-3.5117-0.14844-0.86328-0.83984-1.5234-1.4297-2.082-0.26562-0.25391-0.77344-0.73047-0.80859-0.89844 0.035156-0.19922 0.54297-0.6875 0.82031-0.94141 0.83594-0.74609 1.6914-1.7891 1.4297-3.0117-0.14453-0.85938-0.63672-1.6992-0.77734-2.543zm2.1484 6.4883c0 6.2578 5.0938 11.34 11.352 11.34 6.2578 0 11.352-5.082 11.352-11.34-0.625-15.051-22.074-15.055-22.703 0zm2.2148 0c0-5.0391 4.0977-9.1367 9.1367-9.1367 5.0391 0 9.1367 4.0977 9.1367 9.1367-0.45312 12.09-17.82 12.09-18.273 0zm2.4141-0.53906 2.5586 2.4922-0.60938 3.5234c-0.066406 0.42188 0.10156 0.83203 0.44141 1.0859 0.34375 0.24219 0.79688 0.27734 1.1641 0.078125l3.168-1.6602 3.168 1.6602c0.35938 0.20312 0.83203 0.17188 1.1641-0.078125 0.34375-0.25391 0.50781-0.66406 0.44141-1.0859l-0.60938-3.5234 2.5586-2.4922c0.30078-0.30078 0.41016-0.73047 0.28906-1.1406-0.13281-0.39844-0.48828-0.6875-0.89844-0.75391l-3.543-0.50781-1.5742-3.1992c-0.1875-0.38672-0.57422-0.62109-0.99609-0.62109s-0.80859 0.23438-0.99609 0.62109l-1.5742 3.1992-3.543 0.50781c-0.42187 0.066406-0.76562 0.35547-0.89844 0.75391-0.12109 0.40625-0.019531 0.83984 0.28906 1.1406zm-60.684 50.551c0.37109-0.09375 8.5469-2.082 9.2227-2.2461l-1.0859-19.68c0.011719-3.4023-1.5273-6.8828-4.4531-8.75-4.5273-3.0469-11.246-0.51563-12.625 4.7617-0.6875 2.293-0.50781 4.8906 0.48828 7.0781zm65.203-46.379 1.6953-0.88672c0.72656-0.48047 1.8984 0.54688 2.7109 0.88672-0.066407-0.84375-0.67969-2.3008 0-2.8555l1.3633-1.3398c-0.91406-0.21094-2.3828-0.070312-2.7227-0.875l-0.83984-1.7148-0.83984 1.7148c-0.33984 0.80469-1.8125 0.66406-2.7344 0.875l1.375 1.3398c0.67188 0.55859 0.058594 2.0078-0.007812 2.8555zm1.9375 72.734h-63.477v-14.141c3.9219-0.95312 11.977-2.9102 15.867-3.8555 0.58203-0.14062 0.98047-0.76562 0.82031-1.3398l-0.67578-2.7891c1.5938-0.20313 2.8164-1.8008 2.4023-3.4102l-0.76562-3.1797c-0.35547-1.4414-1.9062-2.3594-3.332-2.0156l-6.5664 1.5938s-1.0391-18.77-1.043-18.77c0.0625-4.7305-2.2773-9.6289-6.7109-11.66l0.003906-27.188h51.969c-0.042968 0.35547-0.097656 0.74219-0.21875 0.875-0.25391 0.21094-0.73828 0.3125-1.0625 0.43359-1.2227 0.29688-2.7891 1.1797-2.6484 2.7031 0.015625 0.98828 0.70703 2.0625 0.79688 2.9688-0.054688 0.17578-0.50781 0.62109-0.77344 0.875-1.9492 1.625-2.0117 3.3711-0.011718 5.0508 0.26953 0.31641 0.88281 0.64844 0.76562 1.1289-0.92578 2.4922-1.5469 4.3516 1.6289 5.3594 0.38672 0.12109 0.88672 0.17578 1.1953 0.47656 0.4375 0.4375 0.3125 1.1445 0.39844 1.6953l-0.34375 0.60937-8.7695 15.184c-0.57813 0.92969 0.55859 2.0938 1.5078 1.5273 0.98047-0.55078 5.1094-2.875 6.0117-3.3672 0 0 0.1875 6.9531 0.1875 6.9648 0.011719 1.0703 1.5391 1.4609 2.0703 0.53125 2.3125-3.9922 7.2656-12.551 9.5352-16.488 0.26562-0.16406 0.61719-0.41406 0.88672-0.56641 0.12109-0.078125 0.24219-0.15625 0.35547-0.19922zm-37.121-31.371c-1.4648 0.027344-1.4453 2.1914 0 2.2148h31.438c1.4648-0.027344 1.4453-2.1914 0-2.2148zm15.285-34.695h-33.656c-1.457-0.003906-1.4414 2.2109 0 2.2148h33.656c1.4648-0.027344 1.4414-2.1992 0-2.2148zm-34.762-5.8359c0 0.60938 0.48828 1.1055 1.1094 1.1055h23.754c0.60938 0 1.1094-0.5 1.1094-1.1055l-0.003907-6.6562c0-0.60938-0.5-1.1055-1.1094-1.1055h-23.754c-0.62109 0-1.1094 0.5-1.1094 1.1055zm1.1055 14.98h33.656c0.60938 0 1.1094-0.48828 1.1094-1.1055 0-0.60938-0.5-1.1055-1.1094-1.1055h-33.656c-0.62109 0-1.1094 0.5-1.1094 1.1055 0.003906 0.62109 0.49219 1.1055 1.1094 1.1055zm28.25 4.7305h-21.617c-1.457 0.003907-1.4453 2.2109 0 2.2148h21.617c1.4609-0.027344 1.4492-2.1875 0-2.2148zm-22.723 8.0508c0 0.60938 0.48828 1.1094 1.1055 1.1094h21.617c0.60938 0 1.1094-0.5 1.1094-1.1094 0-0.62109-0.5-1.1055-1.1094-1.1055l-21.617-0.003906c-0.61719 0-1.1055 0.48828-1.1055 1.1094zm22.723 8.0391c1.4609-0.019531 1.4492-2.1875 0-2.2148h-21.617c-1.457 0.003907-1.4453 2.2188 0 2.2148h21.617zm21.562 25.547h-49.809c-1.4609 0.003906-1.4336 2.2109 0 2.2148h49.809c1.4688-0.027344 1.4336-2.1914 0-2.2148zm0-6.9414h-31.441c-1.4648 0.027344-1.4453 2.1992 0 2.2148h31.438c1.4648-0.023438 1.4492-2.1914 0.003906-2.2148zm0-6.9336h-31.441c-1.4648 0.019531-1.4453 2.1914 0 2.2148h31.438c1.4688-0.027344 1.4453-2.1992 0.003906-2.2148zm7.8945 25.535c0 0.60938-0.48828 1.1055-1.1094 1.1055l-55.488 0.003906v5.8242h63.477l-0.003907-55.613-6.875-11.895zm8.9492-58.746 2.1367 3.7227 3.8555 2.1484-6.3672-11.031c-1.2266 0.71875-2.7109 0.070313-3.8867 0.19922-0.60547 0.5625-1.0664 1.8516-1.793 2.4375 0 0.011719 0 0.011719-0.011719 0.011719-0.15234 0.14453-0.33594 0.25391-0.50781 0.36719l6.5664 11.363v0.011719l0.10156 0.16797 0.12109-4.5859-2.1367-3.6992c-0.71484-1.2695 1.1875-2.3438 1.9219-1.1133zm-60.785 36.035-21.672 5.2695 0.41016 1.707 6.0117-1.4492c3.7266-0.92187 12.004-2.918 15.668-3.8086zm16.777-55.844h-21.539v4.4414h21.539zm-14.363 52.434c-0.09375-0.125-0.72266-3.5117-0.95313-3.4336-0.11328-0.13672-0.29297-0.14453-0.46484-0.13281-0.03125 0.003906-7.8477 1.918-7.8828 1.9141-4.5586 1.1133-14.363 3.4961-18.859 4.5859-0.28516 0.066406-0.46875 0.37109-0.39844 0.65234l0.77344 3.168c0.11719 0.32422 0.30078 0.44141 0.64062 0.38672l26.73-6.5c0.30078-0.066407 0.48047-0.35156 0.41406-0.64063z"/>
<text x="0.0" y="117.5" font-size="5.0" font-weight="bold" font-family="Arbeit Regular, Helvetica, Arial-Unicode, Arial, Sans-serif" fill="#000000">Created by mangunkarsa</text><text x="0.0" y="122.5" font-size="5.0" font-weight="bold" font-family="Arbeit Regular, Helvetica, Arial-Unicode, Arial, Sans-serif" fill="#000000">from Noun Project</text></svg>