<svg xmlns="http://www.w3.org/2000/svg" data-name="Layer 1" viewBox="0 0 95 118.75" x="0px" y="0px"><defs><style>.cls-1{fill-rule:evenodd;}</style></defs><title>a</title><path class="cls-1" d="M26.165,69.57,13.68,63.027a1.983,1.983,0,1,0-1.833,3.516L24.33,73.086a1.983,1.983,0,0,0,1.835-3.516ZM23.336,15.158l2.829-1.482,6.915-3.629L72,31.8l-9.747,5.111-38.92-21.75Zm40.879,25.19V53.383l3.919-5.538a1.977,1.977,0,0,1,2.334-.69L75.29,48.9V34.559L64.215,40.348ZM37.278,7.85,76.2,29.6l11.529-6.028L47.5,2.5,37.278,7.85Zm8.232,84.5V92.5L4.985,71.278V26.849L45.51,48.059v44.29ZM79.269,32.475V51.738h-.006A1.988,1.988,0,0,1,76.6,53.609L70.5,51.386l-6.564,9.255a1.989,1.989,0,0,1-3.695-1.017V42.433L49.49,48.059V92.5L90.015,71.278V26.849L79.269,32.475ZM58.058,39.1,19.138,17.356,7.268,23.571,47.5,44.631Z"/><text x="0" y="110" fill="#000000" font-size="5px" font-weight="bold" font-family="'Helvetica Neue', Helvetica, Arial-Unicode, Arial, Sans-serif">Created by lalawidi</text><text x="0" y="115" fill="#000000" font-size="5px" font-weight="bold" font-family="'Helvetica Neue', Helvetica, Arial-Unicode, Arial, Sans-serif">from the Noun Project</text></svg>